<?xml version="1.0" encoding="UTF-8"?>
<svg width="60px" height="60px" viewBox="0 0 60 60" version="1.1" xmlns="http://www.w3.org/2000/svg" xmlns:xlink="http://www.w3.org/1999/xlink">
    <!-- Generator: Sketch 43.1 (39012) - http://www.bohemiancoding.com/sketch -->
    <title>Desktop</title>
    <desc>Created with Sketch.</desc>
    <defs>
        <path d="M30.0012564,60 C30.0012564,60 52.5025128,34.9283572 52.5025128,22.5012564 C52.5025128,10.0741556 42.4283572,0 30.0012564,0 C17.5741556,0 7.5,10.0741556 7.5,22.5012564 C7.5,34.9283572 30.0012564,60 30.0012564,60 Z" id="path-1"></path>
    </defs>
    <g id="Icon" stroke="none" stroke-width="1" fill="none" fill-rule="evenodd">
        <g id="Desktop">
            <g id="Oval">
                <use fill="#55D391" fill-rule="evenodd" xlink:href="#path-1"></use>
                <path stroke="#FFFFFF" stroke-width="3" d="M30.0012564,57.7234105 C29.2825719,56.8914769 28.4896955,55.9557627 27.6402273,54.9310658 C25.0238715,51.7750069 22.407615,48.4264119 19.9683741,45.0349514 C17.9847212,42.2769292 16.203816,39.6068047 14.6766327,37.0689787 C11.0210912,30.9943127 9,25.9709966 9,22.5012564 C9,10.9025828 18.4025828,1.5 30.0012564,1.5 C41.5999301,1.5 51.0025128,10.9025828 51.0025128,22.5012564 C51.0025128,25.9709966 48.9814216,30.9943127 45.3258801,37.0689787 C43.7986968,39.6068047 42.0177916,42.2769292 40.0341388,45.0349514 C37.5948979,48.4264119 34.9786413,51.7750069 32.3622855,54.9310658 C31.5128174,55.9557627 30.7199409,56.8914769 30.0012564,57.7234105 L30.0012564,57.7234105 Z"></path>
            </g>
        </g>
    </g>
</svg>